<svg xmlns="http://www.w3.org/2000/svg" viewBox="0 0 1024 1024" id="Users"><path d="M497.1 309.4c0 7.9-.5 15.8-1.6 23.6.4-2.7.7-5.3 1.1-8-2.2 15.6-6.3 30.8-12.4 45.4l3-7.2c-4.3 10.1-9.6 19.8-15.7 29-1.6 2.4-3.3 4.7-4.9 7-3.7 5.2 4.4-5.4 1.1-1.4-.8 1-1.6 2-2.5 3.1-3.5 4.2-7.2 8.2-11 12.1-3.9 3.9-7.9 7.5-12.1 11-1 .8-2 1.7-3.1 2.5-4 3.3 5.9-4.4 1.9-1.5-2.3 1.7-4.6 3.3-7 4.9-9.3 6.3-19.2 11.6-29.5 16l7.2-3c-14.5 6.1-29.7 10.3-45.4 12.4 2.7-.4 5.3-.7 8-1.1-15.7 2-31.5 2-47.2 0 2.7.4 5.3.7 8 1.1-15.6-2.2-30.8-6.3-45.4-12.4l7.2 3c-10.1-4.3-19.8-9.6-29-15.7-2.4-1.6-4.7-3.3-7-4.9-5.2-3.7 5.4 4.4 1.4 1.1-1-.8-2-1.6-3.1-2.5-4.2-3.5-8.2-7.2-12.1-11-3.9-3.9-7.5-7.9-11-12.1-.8-1-1.7-2-2.5-3.1-3.3-4 4.4 5.9 1.5 1.9-1.7-2.3-3.3-4.6-4.9-7-6.3-9.3-11.6-19.2-16-29.5l3 7.2c-6.1-14.5-10.3-29.7-12.4-45.4.4 2.7.7 5.3 1.1 8-2-15.7-2-31.5 0-47.2-.4 2.7-.7 5.3-1.1 8 2.2-15.6 6.3-30.8 12.4-45.4l-3 7.2c4.3-10.1 9.6-19.8 15.7-29 1.6-2.4 3.3-4.7 4.9-7 3.7-5.2-4.4 5.4-1.1 1.4.8-1 1.6-2 2.5-3.1 3.5-4.2 7.2-8.2 11-12.1s7.9-7.5 12.1-11c1-.8 2-1.7 3.1-2.5 4-3.3-5.9 4.4-1.9 1.5 2.3-1.7 4.6-3.3 7-4.9 9.3-6.3 19.2-11.6 29.5-16l-7.2 3c14.5-6.1 29.7-10.3 45.4-12.4-2.7.4-5.3.7-8 1.1 15.7-2 31.5-2 47.2 0-2.7-.4-5.3-.7-8-1.1 15.6 2.2 30.8 6.3 45.4 12.4l-7.2-3c10.1 4.3 19.8 9.6 29 15.7 2.4 1.6 4.7 3.3 7 4.9 5.2 3.7-5.4-4.4-1.4-1.1 1 .8 2 1.6 3.1 2.5 4.2 3.5 8.2 7.2 12.1 11 3.9 3.9 7.5 7.9 11 12.1.8 1 1.7 2 2.5 3.1 3.3 4-4.4-5.9-1.5-1.9 1.7 2.3 3.3 4.6 4.9 7 6.3 9.3 11.6 19.2 16 29.5l-3-7.2c6.1 14.5 10.3 29.7 12.4 45.4-.4-2.7-.7-5.3-1.1-8 1.1 7.8 1.6 15.7 1.6 23.6.1 15.7 13.8 30.7 30 30 16.2-.7 30.1-13.2 30-30-.2-41.7-12.7-84-37.1-117.9-25.4-35.3-59.5-61.5-100.4-76.6-78.9-29-173.5-3.4-226.7 61.7-28 34.3-44.6 74.7-48.1 118.9-3.3 41.6 7.4 84.8 29 120.4 20.9 34.4 52.3 63.6 89.1 80.3 41.2 18.6 85.7 24 130.1 15.3 80.9-16 148.4-85.3 160.9-167 1.8-11.6 3.1-23.2 3.1-35 .1-15.7-13.8-30.7-30-30-16.2.6-29.8 13-29.9 29.9zm354.3 55.5c0 6-.4 12-1.2 18 .4-2.7.7-5.3 1.1-8-1.6 11.6-4.7 22.8-9.3 33.6l3-7.2c-3.2 7.5-7 14.6-11.6 21.4-1.2 1.8-2.5 3.6-3.8 5.4-.7.9-2.8 3.7.4-.4 3.3-4.3.7-1-.1 0-2.6 3.2-5.4 6.2-8.3 9.2-2.8 2.8-5.7 5.4-8.7 7.9-.3.3-2.1 2.2-2.5 2.1 0 0 6.3-4.7 3-2.3-1.8 1.3-3.5 2.6-5.3 3.8-6.9 4.7-14.3 8.6-21.9 11.9l7.2-3c-10.8 4.5-22 7.6-33.6 9.3 2.7-.4 5.3-.7 8-1.1-12 1.6-24 1.6-36 0 2.7.4 5.3.7 8 1.1-11.6-1.6-22.8-4.7-33.6-9.3l7.2 3c-7.5-3.2-14.6-7-21.4-11.6-1.8-1.2-3.6-2.5-5.4-3.8-.9-.7-3.7-2.8.4.4 4.3 3.3 1 .7 0-.1-3.2-2.6-6.2-5.4-9.2-8.3-2.8-2.8-5.4-5.7-7.9-8.7-.3-.3-2.2-2.1-2.1-2.5 0 0 4.7 6.3 2.3 3-1.3-1.8-2.6-3.5-3.8-5.3-4.7-6.9-8.6-14.3-11.9-21.9l3 7.2c-4.5-10.8-7.6-22-9.3-33.6.4 2.7.7 5.3 1.1 8-1.6-12-1.6-24 0-36-.4 2.7-.7 5.3-1.1 8 1.6-11.6 4.7-22.8 9.3-33.6l-3 7.2c3.2-7.5 7-14.6 11.6-21.4 1.2-1.8 2.5-3.6 3.8-5.4.7-.9 2.8-3.7-.4.4-3.3 4.3-.7 1 .1 0 2.6-3.2 5.4-6.2 8.3-9.2 2.8-2.8 5.7-5.4 8.7-7.9.3-.3 2.1-2.2 2.5-2.1 0 0-6.3 4.7-3 2.3 1.8-1.3 3.5-2.6 5.3-3.8 6.9-4.7 14.3-8.6 21.9-11.9l-7.2 3c10.8-4.5 22-7.6 33.6-9.3-2.7.4-5.3.7-8 1.1 12-1.6 24-1.6 36 0-2.7-.4-5.3-.7-8-1.1 11.6 1.6 22.8 4.7 33.6 9.3l-7.2-3c7.5 3.2 14.6 7 21.4 11.6 1.8 1.2 3.6 2.5 5.4 3.8.9.7 3.7 2.8-.4-.4-4.3-3.3-1-.7 0 .1 3.2 2.6 6.2 5.4 9.2 8.3 2.8 2.8 5.4 5.7 7.9 8.7.3.3 2.2 2.1 2.1 2.5 0 0-4.7-6.3-2.3-3 1.3 1.8 2.6 3.5 3.8 5.3 4.7 6.9 8.6 14.3 11.9 21.9l-3-7.2c4.5 10.8 7.6 22 9.3 33.6-.4-2.7-.7-5.3-1.1-8 .8 6 1.2 12 1.2 18 .1 15.7 13.7 30.7 30 30 16.2-.7 30.1-13.2 30-30-.2-32.3-9.8-65.5-28.7-91.9-20.2-28.1-47-48.8-79.6-60.7-61.1-22.4-135.2-2.4-176.4 47.9-22.2 27.1-35.2 58.5-38.1 93.5-2.7 32.4 5.7 66.4 22.5 94.3 16.2 26.9 40.8 50 69.6 62.9 32.8 14.8 67.8 19.1 103.1 12 62.6-12.6 115.4-66.7 125.1-130 1.4-9.3 2.5-18.6 2.6-28 .1-15.7-13.9-30.7-30-30-16.4.7-30 13.2-30.1 30zM622.5 777.5v38c0 13 1.1 26.6-.4 39.6.4-2.7.7-5.3 1.1-8-.5 3.6-1.4 7-2.8 10.3l3-7.2c-1.1 2.4-2.4 4.7-3.7 6.9-2.3 4 4.4-4.8 2-2.4-.9.9-1.7 2-2.6 2.9-.8.8-1.6 1.5-2.4 2.2-3.6 3.4 6.3-4 1.9-1.6-2.3 1.3-4.5 2.6-6.9 3.7l7.2-3c-3.4 1.3-6.7 2.2-10.3 2.8 2.7-.4 5.3-.7 8-1.1-6 .7-12.2.4-18.3.4H153.1c-20.7 0-41.3.2-62 0-2 0-4.1-.1-6.1-.4 2.7.4 5.3.7 8 1.1-3.6-.5-7-1.4-10.3-2.8l7.2 3c-2.4-1.1-4.7-2.4-6.9-3.7-4-2.3 4.8 4.4 2.4 2-.9-.9-2-1.7-2.9-2.6-.8-.8-1.5-1.6-2.2-2.4-3.4-3.6 4 6.3 1.6 1.9-1.3-2.3-2.6-4.5-3.7-6.9l3 7.2c-1.3-3.4-2.2-6.8-2.8-10.3.4 2.7.7 5.3 1.1 8-1.5-11.4-.5-23.3-.5-34.7v-41.1c0-9.5.5-18.9 1.7-28.3-.4 2.7-.7 5.3-1.1 8 2.4-17.9 7.1-35.3 14.1-51.9l-3 7.2c5-11.7 11.1-23 18.2-33.6 1.7-2.5 3.5-5 5.3-7.5 4.4-5.9-3.8 4.7-.7.9 1.1-1.4 2.2-2.7 3.3-4.1 3.9-4.7 8-9.2 12.4-13.5 4.3-4.3 8.8-8.4 13.5-12.4 1.3-1.1 2.7-2.2 4.1-3.3 4.1-3.3-6.5 4.8-1.4 1.1 2.7-1.9 5.3-3.9 8-5.7C164 629.1 175.2 623 187 618l-7.2 3c16.6-7 34-11.7 51.9-14.1-2.7.4-5.3.7-8 1.1 13.2-1.7 26.3-1.7 39.5-1.7h168.7c15.6 0 31.2-.2 46.8 1.8-2.7-.4-5.3-.7-8-1.1 17.6 2.5 34.7 7.2 51.1 14l-7.2-3c12.5 5.3 24.4 11.8 35.5 19.5 2.7 1.8 5.2 3.8 7.8 5.7-8.4-6.1 0 .1 2.1 1.8 4.7 4 9.3 8.2 13.6 12.7 4.3 4.4 8.5 9.1 12.4 13.9.9 1.1 1.9 2.3 2.8 3.5-1-1.2-1.9-2.5-2.9-3.7l1.8 2.4c1.8 2.4 3.5 4.9 5.1 7.3 6.9 10.4 12.9 21.5 17.8 33l-3-7.2c6.9 16.5 11.7 33.8 14.1 51.6-.4-2.7-.7-5.3-1.1-8 1.3 9 1.9 18 1.9 27 .1 15.7 13.8 30.7 30 30 16.2-.7 30.1-13.2 30-30-.1-25.9-4.2-52.2-13.1-76.6-9.3-25.5-22.2-48.1-39-69.4-32-40.5-80-69.7-130.5-80.1-24.4-5-48.5-5.2-73.2-5.2h-159c-24.7 0-49.2.9-73.4 6.8-86.8 21.3-157.7 96-171.7 184.7-4.6 28.9-3.6 57.9-3.6 87.1 0 9.6-.6 19.4.2 29 2.6 30.6 23.9 59.2 55.1 65.4 11.1 2.2 21.8 1.9 32.9 1.9h503.2c19.5-.1 39.3-7.8 52.5-22.3 11.6-12.7 17.9-27.9 19.4-45 .3-3.4.2-6.8.2-10.3v-66c0-15.7-13.8-30.7-30-30-16.2.7-30 13.1-30 30z" fill="#000000" class="color000000 svgShape"></path><path d="M945 724.9v34.8c0 11.7.8 23.8-.2 35.5.4-2.7.7-5.3 1.1-8-.3 2.2-.8 4.3-1.6 6.4l3-7.2c-.5 1.2-1.2 2.3-1.7 3.5-2.2 4.5 5.4-5.9 1.1-1.5-4.1 4.1 4.7-2.5 2.1-1.5-1.4.5-2.6 1.5-4 2.1l7.2-3c-2.1.8-4.2 1.3-6.4 1.6 2.7-.4 5.3-.7 8-1.1-10.4.9-21.1.2-31.5.2H652.5l30 30c0-19.9 1-40.1-1-59.9-4.1-40.6-17.6-80.2-41.9-113.3-14.8-20.2-31.5-36.9-51.3-52.1 2 15.7 4 31.4 6.1 47.1 1.6-1.4 3.2-2.7 4.8-4 4.5-3.8-5.9 4.2-1.1.9 3-2.1 6-4.2 9.1-6.2 6.3-3.9 12.9-7.3 19.7-10.2l-7.2 3c11.5-4.8 23.5-8.1 35.8-9.9-2.7.4-5.3.7-8 1.1 10.7-1.4 21.3-1.4 32.1-1.4h137.3c11.5 0 22.9-.2 34.4 1.3-2.7-.4-5.3-.7-8-1.1 12.5 1.8 24.6 5.1 36.3 9.9l-7.2-3c8.3 3.6 16.3 7.8 23.8 12.8 1.8 1.2 3.6 2.5 5.4 3.8 4.3 3.1-1.9-1.9-2.4-1.9.5 0 2.1 1.7 2.5 2.1 3.5 2.9 6.9 6 10.2 9.2 3.1 3.1 6 6.3 8.8 9.7.7.8 1.4 1.7 2.1 2.5 2.2 2.7-4.6-6.2-1.9-2.4 1.3 1.8 2.6 3.5 3.8 5.3 5.2 7.7 9.6 15.8 13.2 24.3l-3-7.2c4.9 11.6 8.2 23.8 9.9 36.3-.4-2.7-.7-5.3-1.1-8 .9 6.5 1.3 13 1.3 19.5.1 15.7 13.7 30.7 30 30 16.2-.7 30.1-13.2 30-30-.2-49.2-21.6-98.4-59.4-130.4-32.7-27.8-73-42.7-116-42.7H679.1c-13.3 0-26.3.5-39.5 2.5-32.8 4.8-62.8 20.3-87.7 41.9-7.1 6.2-9.4 16.3-8.3 25.2 1.4 10 6.5 15.9 14.3 21.9-.5-.4-5.6-4.5-2.5-1.9.8.6 1.5 1.2 2.3 1.9 1.7 1.4 3.4 2.9 5.1 4.3 3.2 2.8 6.2 5.7 9.2 8.6 3 3 5.9 6 8.7 9.2 2.6 3 5.1 7.2 8.1 9.7-.5-.4-4.3-5.8-2-2.5l1.8 2.4c1.2 1.6 2.3 3.2 3.4 4.9 2.4 3.5 4.6 7.1 6.8 10.7 4.5 7.6 8.4 15.4 11.8 23.5l-3-7.2c6.9 16.5 11.7 33.8 14.1 51.6-.4-2.7-.7-5.3-1.1-8 2.8 21.8 1.8 44.1 1.8 66.1 0 16.2 13.7 30 30 30h288.5c10.5 0 20.4-.1 30.4-4.4 20.4-8.6 33-27.8 33.5-49.9.1-4.9 0-9.9 0-14.9v-52.7c0-15.7-13.8-30.7-30-30-16 .9-29.8 13.4-29.8 30.2z" fill="#000000" class="color000000 svgShape"></path></svg>